Coordinates
version=1
nRows=9
nColumns=63
inDegrees=yes

Units are S.I. units (second, meters, Newtons, ...)
If the header above contains a line with 'inDegrees', this indicates whether rotational values are in degrees (yes) or radians (no).

endheader
time	pelvis_tilt	pelvis_list	pelvis_rotation	pelvis_tx	pelvis_ty	pelvis_tz	hip_flexion_r	hip_adduction_r	hip_rotation_r	knee_angle_r	knee_angle_r_beta	ankle_angle_r	subtalar_angle_r	mtp_angle_r	hip_flexion_l	hip_adduction_l	hip_rotation_l	knee_angle_l	knee_angle_l_beta	ankle_angle_l	subtalar_angle_l	mtp_angle_l	L5_S1_Flex_Ext	L5_S1_Lat_Bending	L5_S1_axial_rotation	L4_L5_Flex_Ext	L4_L5_Lat_Bending	L4_L5_axial_rotation	L3_L4_Flex_Ext	L3_L4_Lat_Bending	L3_L4_axial_rotation	L2_L3_Flex_Ext	L2_L3_Lat_Bending	L2_L3_axial_rotation	L1_L2_Flex_Ext	L1_L2_Lat_Bending	L1_L2_axial_rotation	L1_T12_Flex_Ext	L1_T12_Lat_Bending	L1_T12_axial_rotation	Abs_r3	Abs_r2	Abs_r1	Abs_t1	Abs_t2	neck_flexion	neck_bending	neck_rotation	arm_flex_r	arm_add_r	arm_rot_r	elbow_flex_r	pro_sup_r	wrist_flex_r	wrist_dev_r	arm_flex_l	arm_add_l	arm_rot_l	elbow_flex_l	pro_sup_l	wrist_flex_l	wrist_dev_l
4.810345	2.829339	0.517408	95.995268	0.151882	0.659029	0.806542	0.218843	0.740241	-6.813057	4.132608	0.072128	27.160596	13.086104	0.000000	-0.164428	0.209562	7.223965	0.895957	0.015637	21.738876	-10.860565	0.000000	0.072167	-1.157132	0.072675	0.134021	-1.538986	0.077217	0.118563	-2.813451	0.077217	0.082479	-2.813451	0.063590	0.067014	-2.359624	0.059048	0.041236	-1.792398	0.054506	0.515480	-13.089712	0.404194	0.000000	0.000000	13.283407	10.502470	-23.658925	-0.804117	-11.368265	-13.341667	141.098571	86.741811	-13.245227	7.951988	10.340254	-17.775032	57.149829	23.815896	85.728848	-17.263342	-11.639972
4.827586	2.701977	0.492520	95.478229	0.152503	0.659246	0.806506	0.220857	0.585567	-6.543885	4.101450	0.071584	26.927268	13.281534	0.000000	-0.268408	0.343389	6.904446	0.777577	0.013571	21.604153	-11.043642	0.000000	0.071485	-1.166599	0.131404	0.132754	-1.551577	0.139617	0.117442	-2.836469	0.139617	0.081700	-2.836469	0.114979	0.066381	-2.378929	0.106766	0.040846	-1.807062	0.098553	0.510607	-13.196802	0.730831	0.000000	0.000000	12.998418	10.466510	-23.951169	-1.244484	-11.858145	-10.738313	139.095658	86.497244	-11.918309	9.972426	10.214512	-17.874861	57.075909	24.105400	86.065884	-17.626735	-11.420237
4.844828	2.595408	0.470772	94.996582	0.153062	0.659422	0.806565	0.241229	0.455062	-6.191917	4.087378	0.071338	26.711853	13.344246	0.000000	-0.345655	0.457914	6.570052	0.695661	0.012142	21.526188	-11.146819	0.000000	0.070345	-1.172649	0.167595	0.130638	-1.559624	0.178070	0.115570	-2.851179	0.178070	0.080398	-2.851179	0.146646	0.065323	-2.391266	0.136171	0.040195	-1.816434	0.125696	0.502469	-13.265243	0.932114	0.000000	0.000000	12.658300	10.447280	-24.111054	-1.352238	-12.408136	-7.761645	136.456965	86.348458	-10.639008	11.723384	9.972717	-17.963915	56.562255	24.490735	86.393119	-17.897045	-11.213947
4.862069	2.518674	0.440559	94.567763	0.153536	0.659515	0.806714	0.291336	0.356399	-5.820075	4.082842	0.071259	26.548848	13.359678	0.000000	-0.389134	0.547785	6.383079	0.634666	0.011077	21.448515	-11.385993	0.000000	0.069993	-1.174626	0.186417	0.129984	-1.562253	0.198068	0.114992	-2.855987	0.198068	0.079995	-2.855987	0.163115	0.064996	-2.395298	0.151464	0.039994	-1.819496	0.139813	0.499954	-13.287609	1.036797	0.000000	0.000000	12.307356	10.418662	-24.193948	-1.140133	-13.027158	-4.483340	133.204594	86.296273	-9.391303	13.180653	9.651048	-18.028468	55.625087	24.953471	86.731260	-18.014415	-11.000311
4.879310	2.467696	0.386388	94.189363	0.153914	0.659501	0.806975	0.394441	0.286980	-5.362111	4.090226	0.071388	26.433853	13.244239	0.000000	-0.378063	0.614749	6.164186	0.601197	0.010493	21.429080	-11.511460	0.000000	0.071715	-1.173590	0.199153	0.133182	-1.560874	0.211600	0.117821	-2.853466	0.211600	0.081963	-2.853466	0.174259	0.066595	-2.393184	0.161812	0.040978	-1.817890	0.149365	0.512254	-13.275882	1.107628	0.000000	0.000000	11.983388	10.359020	-24.298084	-0.629556	-13.719912	-0.984734	129.381657	86.339896	-8.161300	14.360418	9.319388	-18.044870	54.392742	25.425300	87.048239	-17.930614	-10.793098
4.896552	2.440107	0.310635	93.865493	0.154219	0.659374	0.807371	0.555090	0.243181	-4.898425	4.121219	0.071929	26.396213	13.099203	0.000000	-0.320063	0.661930	6.091424	0.580668	0.010135	21.402738	-11.779488	0.000000	0.074624	-1.170241	0.206848	0.138584	-1.556421	0.219776	0.122600	-2.845325	0.219776	0.085288	-2.845325	0.180992	0.069296	-2.386356	0.168064	0.042640	-1.812704	0.155136	0.533032	-13.238006	1.150428	0.000000	0.000000	11.724277	10.260462	-24.435663	0.217872	-14.468838	2.750217	125.006041	86.474196	-6.946454	15.315277	9.004104	-18.018011	52.886486	25.881290	87.329857	-17.566120	-10.604397
4.913793	2.436895	0.216898	93.621178	0.154422	0.659139	0.807906	0.759311	0.227803	-4.421085	4.159424	0.072596	26.421859	12.872506	0.000000	-0.213485	0.685777	6.095033	0.576994	0.010070	21.404559	-12.045385	0.000000	0.078685	-1.163856	0.201481	0.146126	-1.547928	0.214074	0.129272	-2.829798	0.214074	0.089929	-2.829798	0.176296	0.073067	-2.373334	0.163704	0.044961	-1.802812	0.151111	0.562039	-13.165766	1.120578	0.000000	0.000000	11.543025	10.164769	-24.480388	1.438158	-15.235507	6.831883	120.082929	86.692580	-5.952709	15.988061	8.715212	-17.940359	51.187445	26.269457	87.444916	-16.947091	-10.489227
4.931034	2.450330	0.103409	93.461175	0.154496	0.658786	0.808585	1.010383	0.229887	-3.954106	4.213072	0.073532	26.518143	12.582970	0.000000	-0.056149	0.695721	6.177600	0.588398	0.010269	21.442579	-12.297701	0.000000	0.083754	-1.154874	0.182783	0.155539	-1.535983	0.194207	0.137599	-2.807961	0.194207	0.095722	-2.807961	0.159935	0.077774	-2.355020	0.148511	0.047857	-1.788900	0.137087	0.598244	-13.064169	1.016584	0.000000	0.000000	11.442158	10.054103	-24.447445	2.979896	-15.962040	11.210437	114.670947	86.985004	-5.163811	16.395525	8.464934	-17.813325	49.349257	26.572518	87.425590	-16.068171	-10.446182
4.948276	2.493877	-0.029258	93.426349	0.154376	0.658290	0.809478	1.317467	0.260941	-3.531595	4.302429	0.075092	26.685652	12.198498	0.000000	0.172482	0.680050	6.367393	0.633009	0.011048	21.540783	-12.508535	0.000000	0.087712	-1.141110	0.144475	0.162891	-1.517676	0.153505	0.144103	-2.774494	0.153505	0.100246	-2.774494	0.126415	0.081450	-2.326951	0.117386	0.050119	-1.767579	0.108356	0.626520	-12.908462	0.803526	0.000000	0.000000	11.446832	9.931800	-24.319484	4.749790	-16.584606	15.778616	108.848892	87.360847	-4.601659	16.523834	8.271155	-17.634022	47.444669	26.782454	87.269798	-14.983558	-10.471669
